# xmcd CD database file
#
# Track frame offsets:
#	150
#	14548
#	32522
#	45365
#	55873
#	73727
#	91013
#	109054
#	128423
#	140340
#	158901
#	177341
#	197187
#	209792
#	224786
#	237955
#
# Disc length: 3401 seconds
#
# Revision: 1
# Processed by: cddbd v1.5.2PL0 Copyright (c) Steve Scherf et al.
# Submitted via: jetAudio 7
#
DISCID=e60d4710
DTITLE=7080 반갑다 친구야 1-1
DYEAR=1900
DGENRE=Folk
TTITLE0=행복을 주는 사람
TTITLE1=비와 찻잔 사이
TTITLE2=그리워라
TTITLE3=당신의 모든 것을
TTITLE4=촛불
TTITLE5=인생은 미완성
TTITLE6=가버린 친구에게 바침
TTITLE7=장난감 병정
TTITLE8=모두가 사랑이예요
TTITLE9=찻잔
TTITLE10=그 날
TTITLE11=영상
TTITLE12=한번쯤
TTITLE13=한 잔의 추억
TTITLE14=여고 졸업반
TTITLE15=21살의 비망록
EXTD=
EXTT0=
EXTT1=
EXTT2=
EXTT3=
EXTT4=
EXTT5=
EXTT6=
EXTT7=
EXTT8=
EXTT9=
EXTT10=
EXTT11=
EXTT12=
EXTT13=
EXTT14=
EXTT15=
PLAYORDER=
